1200 3 0 0
0 -16.710938 -0.202188 -1.000000
1 -15.930938 -0.202188 -1.000000
2 -16.710938 0.577813 -1.000000
3 -15.930938 0.577813 -1.000000
4 -16.710938 -0.202188 1.000000
5 -15.930938 -0.202188 1.000000
6 -16.710938 0.577813 1.000000
7 -15.930938 0.577813 1.000000
8 -15.910938 -0.202188 -1.000000
9 -15.130938 -0.202188 -1.000000
10 -15.910938 0.577813 -1.000000
11 -15.130938 0.577813 -1.000000
12 -15.910938 -0.202188 1.000000
13 -15.130938 -0.202188 1.000000
14 -15.910938 0.577813 1.000000
15 -15.130938 0.577813 1.000000
16 -15.110938 -0.202188 -1.000000
17 -14.330937 -0.202188 -1.000000
18 -15.110938 0.577813 -1.000000
19 -14.330937 0.577813 -1.000000
20 -15.110938 -0.202188 1.000000
21 -14.330937 -0.202188 1.000000
22 -15.110938 0.577813 1.000000
23 -14.330937 0.577813 1.000000
24 -14.310937 -0.202188 -1.000000
25 -13.530937 -0.202188 -1.000000
26 -14.310937 0.577813 -1.000000
27 -13.530937 0.577813 -1.000000
28 -14.310937 -0.202188 1.000000
29 -13.530937 -0.202188 1.000000
30 -14.310937 0.577813 1.000000
31 -13.530937 0.577813 1.000000
32 -13.510938 -0.202188 -1.000000
33 -12.730937 -0.202188 -1.000000
34 -13.510938 0.577813 -1.000000
35 -12.730937 0.577813 -1.000000
36 -13.510938 -0.202188 1.000000
37 -12.730937 -0.202188 1.000000
38 -13.510938 0.577813 1.000000
39 -12.730937 0.577813 1.000000
40 -18.310937 0.597813 -1.000000
41 -17.530938 0.597813 -1.000000
42 -18.310937 1.377813 -1.000000
43 -17.530938 1.377813 -1.000000
44 -18.310937 0.597813 1.000000
45 -17.530938 0.597813 1.000000
46 -18.310937 1.377813 1.000000
47 -17.530938 1.377813 1.000000
48 -17.510938 0.597813 -1.000000
49 -16.730938 0.597813 -1.000000
50 -17.510938 1.377813 -1.000000
51 -16.730938 1.377813 -1.000000
52 -17.510938 0.597813 1.000000
53 -16.730938 0.597813 1.000000
54 -17.510938 1.377813 1.000000
55 -16.730938 1.377813 1.000000
56 -12.710938 0.597813 -1.000000
57 -11.930938 0.597813 -1.000000
58 -12.710938 1.377813 -1.000000
59 -11.930938 1.377813 -1.000000
60 -12.710938 0.597813 1.000000
61 -11.930938 0.597813 1.000000
62 -12.710938 1.377813 1.000000
63 -11.930938 1.377813 1.000000
64 -19.110938 1.397813 -1.000000
65 -18.330937 1.397813 -1.000000
66 -19.110938 2.177813 -1.000000
67 -18.330937 2.177813 -1.000000
68 -19.110938 1.397813 1.000000
69 -18.330937 1.397813 1.000000
70 -19.110938 2.177813 1.000000
71 -18.330937 2.177813 1.000000
72 -18.310937 1.397813 -1.000000
73 -17.530938 1.397813 -1.000000
74 -18.310937 2.177813 -1.000000
75 -17.530938 2.177813 -1.000000
76 -18.310937 1.397813 1.000000
77 -17.530938 1.397813 1.000000
78 -18.310937 2.177813 1.000000
79 -17.530938 2.177813 1.000000
80 -12.710938 1.397813 -1.000000
81 -11.930938 1.397813 -1.000000
82 -12.710938 2.177813 -1.000000
83 -11.930938 2.177813 -1.000000
84 -12.710938 1.397813 1.000000
85 -11.930938 1.397813 1.000000
86 -12.710938 2.177813 1.000000
87 -11.930938 2.177813 1.000000
88 -19.110938 2.197813 -1.000000
89 -18.330937 2.197813 -1.000000
90 -19.110938 2.977812 -1.000000
91 -18.330937 2.977812 -1.000000
92 -19.110938 2.197813 1.000000
93 -18.330937 2.197813 1.000000
94 -19.110938 2.977812 1.000000
95 -18.330937 2.977812 1.000000
96 -18.310937 2.197813 -1.000000
97 -17.530938 2.197813 -1.000000
98 -18.310937 2.977812 -1.000000
99 -17.530938 2.977812 -1.000000
100 -18.310937 2.197813 1.000000
101 -17.530938 2.197813 1.000000
102 -18.310937 2.977812 1.000000
103 -17.530938 2.977812 1.000000
104 -12.710938 2.197813 -1.000000
105 -11.930938 2.197813 -1.000000
106 -12.710938 2.977812 -1.000000
107 -11.930938 2.977812 -1.000000
108 -12.710938 2.197813 1.000000
109 -11.930938 2.197813 1.000000
110 -12.710938 2.977812 1.000000
111 -11.930938 2.977812 1.000000
112 -19.910938 2.997812 -1.000000
113 -19.130938 2.997812 -1.000000
114 -19.910938 3.777812 -1.000000
115 -19.130938 3.777812 -1.000000
116 -19.910938 2.997812 1.000000
117 -19.130938 2.997812 1.000000
118 -19.910938 3.777812 1.000000
119 -19.130938 3.777812 1.000000
120 -19.110938 2.997812 -1.000000
121 -18.330937 2.997812 -1.000000
122 -19.110938 3.777812 -1.000000
123 -18.330937 3.777812 -1.000000
124 -19.110938 2.997812 1.000000
125 -18.330937 2.997812 1.000000
126 -19.110938 3.777812 1.000000
127 -18.330937 3.777812 1.000000
128 -12.710938 2.997812 -1.000000
129 -11.930938 2.997812 -1.000000
130 -12.710938 3.777812 -1.000000
131 -11.930938 3.777812 -1.000000
132 -12.710938 2.997812 1.000000
133 -11.930938 2.997812 1.000000
134 -12.710938 3.777812 1.000000
135 -11.930938 3.777812 1.000000
136 -19.910938 3.797813 -1.000000
137 -19.130938 3.797813 -1.000000
138 -19.910938 4.577813 -1.000000
139 -19.130938 4.577813 -1.000000
140 -19.910938 3.797813 1.000000
141 -19.130938 3.797813 1.000000
142 -19.910938 4.577813 1.000000
143 -19.130938 4.577813 1.000000
144 -19.110938 3.797813 -1.000000
145 -18.330937 3.797813 -1.000000
146 -19.110938 4.577813 -1.000000
147 -18.330937 4.577813 -1.000000
148 -19.110938 3.797813 1.000000
149 -18.330937 3.797813 1.000000
150 -19.110938 4.577813 1.000000
151 -18.330937 4.577813 1.000000
152 -12.710938 3.797813 -1.000000
153 -11.930938 3.797813 -1.000000
154 -12.710938 4.577813 -1.000000
155 -11.930938 4.577813 -1.000000
156 -12.710938 3.797813 1.000000
157 -11.930938 3.797813 1.000000
158 -12.710938 4.577813 1.000000
159 -11.930938 4.577813 1.000000
160 -11.910938 3.797813 -1.000000
161 -11.130938 3.797813 -1.000000
162 -11.910938 4.577813 -1.000000
163 -11.130938 4.577813 -1.000000
164 -11.910938 3.797813 1.000000
165 -11.130938 3.797813 1.000000
166 -11.910938 4.577813 1.000000
167 -11.130938 4.577813 1.000000
168 -19.910938 4.597813 -1.000000
169 -19.130938 4.597813 -1.000000
170 -19.910938 5.377813 -1.000000
171 -19.130938 5.377813 -1.000000
172 -19.910938 4.597813 1.000000
173 -19.130938 4.597813 1.000000
174 -19.910938 5.377813 1.000000
175 -19.130938 5.377813 1.000000
176 -19.110938 4.597813 -1.000000
177 -18.330937 4.597813 -1.000000
178 -19.110938 5.377813 -1.000000
179 -18.330937 5.377813 -1.000000
180 -19.110938 4.597813 1.000000
181 -18.330937 4.597813 1.000000
182 -19.110938 5.377813 1.000000
183 -18.330937 5.377813 1.000000
184 -14.310937 4.597813 -1.000000
185 -13.530937 4.597813 -1.000000
186 -14.310937 5.377813 -1.000000
187 -13.530937 5.377813 -1.000000
188 -14.310937 4.597813 1.000000
189 -13.530937 4.597813 1.000000
190 -14.310937 5.377813 1.000000
191 -13.530937 5.377813 1.000000
192 -13.510938 4.597813 -1.000000
193 -12.730937 4.597813 -1.000000
194 -13.510938 5.377813 -1.000000
195 -12.730937 5.377813 -1.000000
196 -13.510938 4.597813 1.000000
197 -12.730937 4.597813 1.000000
198 -13.510938 5.377813 1.000000
199 -12.730937 5.377813 1.000000
200 -12.710938 4.597813 -1.000000
201 -11.930938 4.597813 -1.000000
202 -12.710938 5.377813 -1.000000
203 -11.930938 5.377813 -1.000000
204 -12.710938 4.597813 1.000000
205 -11.930938 4.597813 1.000000
206 -12.710938 5.377813 1.000000
207 -11.930938 5.377813 1.000000
208 -11.910938 4.597813 -1.000000
209 -11.130938 4.597813 -1.000000
210 -11.910938 5.377813 -1.000000
211 -11.130938 5.377813 -1.000000
212 -11.910938 4.597813 1.000000
213 -11.130938 4.597813 1.000000
214 -11.910938 5.377813 1.000000
215 -11.130938 5.377813 1.000000
216 -11.110938 4.597813 -1.000000
217 -10.330937 4.597813 -1.000000
218 -11.110938 5.377813 -1.000000
219 -10.330937 5.377813 -1.000000
220 -11.110938 4.597813 1.000000
221 -10.330937 4.597813 1.000000
222 -11.110938 5.377813 1.000000
223 -10.330937 5.377813 1.000000
224 -19.910938 5.397812 -1.000000
225 -19.130938 5.397812 -1.000000
226 -19.910938 6.177813 -1.000000
227 -19.130938 6.177813 -1.000000
228 -19.910938 5.397812 1.000000
229 -19.130938 5.397812 1.000000
230 -19.910938 6.177813 1.000000
231 -19.130938 6.177813 1.000000
232 -19.110938 5.397812 -1.000000
233 -18.330937 5.397812 -1.000000
234 -19.110938 6.177813 -1.000000
235 -18.330937 6.177813 -1.000000
236 -19.110938 5.397812 1.000000
237 -18.330937 5.397812 1.000000
238 -19.110938 6.177813 1.000000
239 -18.330937 6.177813 1.000000
240 -19.110938 6.197813 -1.000000
241 -18.330937 6.197813 -1.000000
242 -19.110938 6.977813 -1.000000
243 -18.330937 6.977813 -1.000000
244 -19.110938 6.197813 1.000000
245 -18.330937 6.197813 1.000000
246 -19.110938 6.977813 1.000000
247 -18.330937 6.977813 1.000000
248 -19.110938 6.997813 -1.000000
249 -18.330937 6.997813 -1.000000
250 -19.110938 7.777813 -1.000000
251 -18.330937 7.777813 -1.000000
252 -19.110938 6.997813 1.000000
253 -18.330937 6.997813 1.000000
254 -19.110938 7.777813 1.000000
255 -18.330937 7.777813 1.000000
256 -18.310937 6.997813 -1.000000
257 -17.530938 6.997813 -1.000000
258 -18.310937 7.777813 -1.000000
259 -17.530938 7.777813 -1.000000
260 -18.310937 6.997813 1.000000
261 -17.530938 6.997813 1.000000
262 -18.310937 7.777813 1.000000
263 -17.530938 7.777813 1.000000
264 -18.310937 7.797812 -1.000000
265 -17.530938 7.797812 -1.000000
266 -18.310937 8.577813 -1.000000
267 -17.530938 8.577813 -1.000000
268 -18.310937 7.797812 1.000000
269 -17.530938 7.797812 1.000000
270 -18.310937 8.577813 1.000000
271 -17.530938 8.577813 1.000000
272 -17.510938 7.797812 -1.000000
273 -16.730938 7.797812 -1.000000
274 -17.510938 8.577813 -1.000000
275 -16.730938 8.577813 -1.000000
276 -17.510938 7.797812 1.000000
277 -16.730938 7.797812 1.000000
278 -17.510938 8.577813 1.000000
279 -16.730938 8.577813 1.000000
280 -12.710938 7.797812 -1.000000
281 -11.930938 7.797812 -1.000000
282 -12.710938 8.577813 -1.000000
283 -11.930938 8.577813 -1.000000
284 -12.710938 7.797812 1.000000
285 -11.930938 7.797812 1.000000
286 -12.710938 8.577813 1.000000
287 -11.930938 8.577813 1.000000
288 -17.510938 8.597813 -1.000000
289 -16.730938 8.597813 -1.000000
290 -17.510938 9.377813 -1.000000
291 -16.730938 9.377813 -1.000000
292 -17.510938 8.597813 1.000000
293 -16.730938 8.597813 1.000000
294 -17.510938 9.377813 1.000000
295 -16.730938 9.377813 1.000000
296 -16.710938 8.597813 -1.000000
297 -15.930938 8.597813 -1.000000
298 -16.710938 9.377813 -1.000000
299 -15.930938 9.377813 -1.000000
300 -16.710938 8.597813 1.000000
301 -15.930938 8.597813 1.000000
302 -16.710938 9.377813 1.000000
303 -15.930938 9.377813 1.000000
304 -15.910938 8.597813 -1.000000
305 -15.130938 8.597813 -1.000000
306 -15.910938 9.377813 -1.000000
307 -15.130938 9.377813 -1.000000
308 -15.910938 8.597813 1.000000
309 -15.130938 8.597813 1.000000
310 -15.910938 9.377813 1.000000
311 -15.130938 9.377813 1.000000
312 -15.110938 8.597813 -1.000000
313 -14.330937 8.597813 -1.000000
314 -15.110938 9.377813 -1.000000
315 -14.330937 9.377813 -1.000000
316 -15.110938 8.597813 1.000000
317 -14.330937 8.597813 1.000000
318 -15.110938 9.377813 1.000000
319 -14.330937 9.377813 1.000000
320 -14.310937 8.597813 -1.000000
321 -13.530937 8.597813 -1.000000
322 -14.310937 9.377813 -1.000000
323 -13.530937 9.377813 -1.000000
324 -14.310937 8.597813 1.000000
325 -13.530937 8.597813 1.000000
326 -14.310937 9.377813 1.000000
327 -13.530937 9.377813 1.000000
328 -13.510938 8.597813 -1.000000
329 -12.730937 8.597813 -1.000000
330 -13.510938 9.377813 -1.000000
331 -12.730937 9.377813 -1.000000
332 -13.510938 8.597813 1.000000
333 -12.730937 8.597813 1.000000
334 -13.510938 9.377813 1.000000
335 -12.730937 9.377813 1.000000
336 -8.091563 0.010000 -1.000000
337 -7.311563 0.010000 -1.000000
338 -8.091563 0.790000 -1.000000
339 -7.311563 0.790000 -1.000000
340 -8.091563 0.010000 1.000000
341 -7.311563 0.010000 1.000000
342 -8.091563 0.790000 1.000000
343 -7.311563 0.790000 1.000000
344 -7.291563 0.010000 -1.000000
345 -6.511563 0.010000 -1.000000
346 -7.291563 0.790000 -1.000000
347 -6.511563 0.790000 -1.000000
348 -7.291563 0.010000 1.000000
349 -6.511563 0.010000 1.000000
350 -7.291563 0.790000 1.000000
351 -6.511563 0.790000 1.000000
352 -1.691562 0.010000 -1.000000
353 -0.911563 0.010000 -1.000000
354 -1.691562 0.790000 -1.000000
355 -0.911563 0.790000 -1.000000
356 -1.691562 0.010000 1.000000
357 -0.911563 0.010000 1.000000
358 -1.691562 0.790000 1.000000
359 -0.911563 0.790000 1.000000
360 -0.891562 0.010000 -1.000000
361 -0.111562 0.010000 -1.000000
362 -0.891562 0.790000 -1.000000
363 -0.111562 0.790000 -1.000000
364 -0.891562 0.010000 1.000000
365 -0.111562 0.010000 1.000000
366 -0.891562 0.790000 1.000000
367 -0.111562 0.790000 1.000000
368 -0.091562 0.010000 -1.000000
369 0.688437 0.010000 -1.000000
370 -0.091562 0.790000 -1.000000
371 0.688437 0.790000 -1.000000
372 -0.091562 0.010000 1.000000
373 0.688437 0.010000 1.000000
374 -0.091562 0.790000 1.000000
375 0.688437 0.790000 1.000000
376 -1.691562 0.810000 -1.000000
377 -0.911563 0.810000 -1.000000
378 -1.691562 1.590000 -1.000000
379 -0.911563 1.590000 -1.000000
380 -1.691562 0.810000 1.000000
381 -0.911563 0.810000 1.000000
382 -1.691562 1.590000 1.000000
383 -0.911563 1.590000 1.000000
384 -0.891562 0.810000 -1.000000
385 -0.111562 0.810000 -1.000000
386 -0.891562 1.590000 -1.000000
387 -0.111562 1.590000 -1.000000
388 -0.891562 0.810000 1.000000
389 -0.111562 0.810000 1.000000
390 -0.891562 1.590000 1.000000
391 -0.111562 1.590000 1.000000
392 -7.291563 1.610000 -1.000000
393 -6.511563 1.610000 -1.000000
394 -7.291563 2.390000 -1.000000
395 -6.511563 2.390000 -1.000000
396 -7.291563 1.610000 1.000000
397 -6.511563 1.610000 1.000000
398 -7.291563 2.390000 1.000000
399 -6.511563 2.390000 1.000000
400 -2.491562 1.610000 -1.000000
401 -1.711563 1.610000 -1.000000
402 -2.491562 2.390000 -1.000000
403 -1.711563 2.390000 -1.000000
404 -2.491562 1.610000 1.000000
405 -1.711563 1.610000 1.000000
406 -2.491562 2.390000 1.000000
407 -1.711563 2.390000 1.000000
408 -1.691562 1.610000 -1.000000
409 -0.911563 1.610000 -1.000000
410 -1.691562 2.390000 -1.000000
411 -0.911563 2.390000 -1.000000
412 -1.691562 1.610000 1.000000
413 -0.911563 1.610000 1.000000
414 -1.691562 2.390000 1.000000
415 -0.911563 2.390000 1.000000
416 -7.291563 2.410000 -1.000000
417 -6.511563 2.410000 -1.000000
418 -7.291563 3.190000 -1.000000
419 -6.511563 3.190000 -1.000000
420 -7.291563 2.410000 1.000000
421 -6.511563 2.410000 1.000000
422 -7.291563 3.190000 1.000000
423 -6.511563 3.190000 1.000000
424 -2.491562 2.410000 -1.000000
425 -1.711563 2.410000 -1.000000
426 -2.491562 3.190000 -1.000000
427 -1.711563 3.190000 -1.000000
428 -2.491562 2.410000 1.000000
429 -1.711563 2.410000 1.000000
430 -2.491562 3.190000 1.000000
431 -1.711563 3.190000 1.000000
432 -1.691562 2.410000 -1.000000
433 -0.911563 2.410000 -1.000000
434 -1.691562 3.190000 -1.000000
435 -0.911563 3.190000 -1.000000
436 -1.691562 2.410000 1.000000
437 -0.911563 2.410000 1.000000
438 -1.691562 3.190000 1.000000
439 -0.911563 3.190000 1.000000
440 -6.491563 3.210000 -1.000000
441 -5.711562 3.210000 -1.000000
442 -6.491563 3.990000 -1.000000
443 -5.711562 3.990000 -1.000000
444 -6.491563 3.210000 1.000000
445 -5.711562 3.210000 1.000000
446 -6.491563 3.990000 1.000000
447 -5.711562 3.990000 1.000000
448 -5.691563 3.210000 -1.000000
449 -4.911563 3.210000 -1.000000
450 -5.691563 3.990000 -1.000000
451 -4.911563 3.990000 -1.000000
452 -5.691563 3.210000 1.000000
453 -4.911563 3.210000 1.000000
454 -5.691563 3.990000 1.000000
455 -4.911563 3.990000 1.000000
456 -4.891563 3.210000 -1.000000
457 -4.111562 3.210000 -1.000000
458 -4.891563 3.990000 -1.000000
459 -4.111562 3.990000 -1.000000
460 -4.891563 3.210000 1.000000
461 -4.111562 3.210000 1.000000
462 -4.891563 3.990000 1.000000
463 -4.111562 3.990000 1.000000
464 -4.091563 3.210000 -1.000000
465 -3.311563 3.210000 -1.000000
466 -4.091563 3.990000 -1.000000
467 -3.311563 3.990000 -1.000000
468 -4.091563 3.210000 1.000000
469 -3.311563 3.210000 1.000000
470 -4.091563 3.990000 1.000000
471 -3.311563 3.990000 1.000000
472 -3.291562 3.210000 -1.000000
473 -2.511563 3.210000 -1.000000
474 -3.291562 3.990000 -1.000000
475 -2.511563 3.990000 -1.000000
476 -3.291562 3.210000 1.000000
477 -2.511563 3.210000 1.000000
478 -3.291562 3.990000 1.000000
479 -2.511563 3.990000 1.000000
480 -2.491562 3.210000 -1.000000
481 -1.711563 3.210000 -1.000000
482 -2.491562 3.990000 -1.000000
483 -1.711563 3.990000 -1.000000
484 -2.491562 3.210000 1.000000
485 -1.711563 3.210000 1.000000
486 -2.491562 3.990000 1.000000
487 -1.711563 3.990000 1.000000
488 -6.491563 4.010000 -1.000000
489 -5.711562 4.010000 -1.000000
490 -6.491563 4.790000 -1.000000
491 -5.711562 4.790000 -1.000000
492 -6.491563 4.010000 1.000000
493 -5.711562 4.010000 1.000000
494 -6.491563 4.790000 1.000000
495 -5.711562 4.790000 1.000000
496 -5.691563 4.010000 -1.000000
497 -4.911563 4.010000 -1.000000
498 -5.691563 4.790000 -1.000000
499 -4.911563 4.790000 -1.000000
500 -5.691563 4.010000 1.000000
501 -4.911563 4.010000 1.000000
502 -5.691563 4.790000 1.000000
503 -4.911563 4.790000 1.000000
504 -4.891563 4.010000 -1.000000
505 -4.111562 4.010000 -1.000000
506 -4.891563 4.790000 -1.000000
507 -4.111562 4.790000 -1.000000
508 -4.891563 4.010000 1.000000
509 -4.111562 4.010000 1.000000
510 -4.891563 4.790000 1.000000
511 -4.111562 4.790000 1.000000
512 -4.091563 4.010000 -1.000000
513 -3.311563 4.010000 -1.000000
514 -4.091563 4.790000 -1.000000
515 -3.311563 4.790000 -1.000000
516 -4.091563 4.010000 1.000000
517 -3.311563 4.010000 1.000000
518 -4.091563 4.790000 1.000000
519 -3.311563 4.790000 1.000000
520 -3.291562 4.010000 -1.000000
521 -2.511563 4.010000 -1.000000
522 -3.291562 4.790000 -1.000000
523 -2.511563 4.790000 -1.000000
524 -3.291562 4.010000 1.000000
525 -2.511563 4.010000 1.000000
526 -3.291562 4.790000 1.000000
527 -2.511563 4.790000 1.000000
528 -2.491562 4.010000 -1.000000
529 -1.711563 4.010000 -1.000000
530 -2.491562 4.790000 -1.000000
531 -1.711563 4.790000 -1.000000
532 -2.491562 4.010000 1.000000
533 -1.711563 4.010000 1.000000
534 -2.491562 4.790000 1.000000
535 -1.711563 4.790000 1.000000
536 -5.691563 4.810000 -1.000000
537 -4.911563 4.810000 -1.000000
538 -5.691563 5.590000 -1.000000
539 -4.911563 5.590000 -1.000000
540 -5.691563 4.810000 1.000000
541 -4.911563 4.810000 1.000000
542 -5.691563 5.590000 1.000000
543 -4.911563 5.590000 1.000000
544 -4.891563 4.810000 -1.000000
545 -4.111562 4.810000 -1.000000
546 -4.891563 5.590000 -1.000000
547 -4.111562 5.590000 -1.000000
548 -4.891563 4.810000 1.000000
549 -4.111562 4.810000 1.000000
550 -4.891563 5.590000 1.000000
551 -4.111562 5.590000 1.000000
552 -4.091563 4.810000 -1.000000
553 -3.311563 4.810000 -1.000000
554 -4.091563 5.590000 -1.000000
555 -3.311563 5.590000 -1.000000
556 -4.091563 4.810000 1.000000
557 -3.311563 4.810000 1.000000
558 -4.091563 5.590000 1.000000
559 -3.311563 5.590000 1.000000
560 -3.291562 4.810000 -1.000000
561 -2.511563 4.810000 -1.000000
562 -3.291562 5.590000 -1.000000
563 -2.511563 5.590000 -1.000000
564 -3.291562 4.810000 1.000000
565 -2.511563 4.810000 1.000000
566 -3.291562 5.590000 1.000000
567 -2.511563 5.590000 1.000000
568 -2.491562 4.810000 -1.000000
569 -1.711563 4.810000 -1.000000
570 -2.491562 5.590000 -1.000000
571 -1.711563 5.590000 -1.000000
572 -2.491562 4.810000 1.000000
573 -1.711563 4.810000 1.000000
574 -2.491562 5.590000 1.000000
575 -1.711563 5.590000 1.000000
576 -5.691563 5.610000 -1.000000
577 -4.911563 5.610000 -1.000000
578 -5.691563 6.390000 -1.000000
579 -4.911563 6.390000 -1.000000
580 -5.691563 5.610000 1.000000
581 -4.911563 5.610000 1.000000
582 -5.691563 6.390000 1.000000
583 -4.911563 6.390000 1.000000
584 -4.891563 5.610000 -1.000000
585 -4.111562 5.610000 -1.000000
586 -4.891563 6.390000 -1.000000
587 -4.111562 6.390000 -1.000000
588 -4.891563 5.610000 1.000000
589 -4.111562 5.610000 1.000000
590 -4.891563 6.390000 1.000000
591 -4.111562 6.390000 1.000000
592 -4.091563 5.610000 -1.000000
593 -3.311563 5.610000 -1.000000
594 -4.091563 6.390000 -1.000000
595 -3.311563 6.390000 -1.000000
596 -4.091563 5.610000 1.000000
597 -3.311563 5.610000 1.000000
598 -4.091563 6.390000 1.000000
599 -3.311563 6.390000 1.000000
600 -3.291562 5.610000 -1.000000
601 -2.511563 5.610000 -1.000000
602 -3.291562 6.390000 -1.000000
603 -2.511563 6.390000 -1.000000
604 -3.291562 5.610000 1.000000
605 -2.511563 5.610000 1.000000
606 -3.291562 6.390000 1.000000
607 -2.511563 6.390000 1.000000
608 -4.891563 6.410000 -1.000000
609 -4.111562 6.410000 -1.000000
610 -4.891563 7.190000 -1.000000
611 -4.111562 7.190000 -1.000000
612 -4.891563 6.410000 1.000000
613 -4.111562 6.410000 1.000000
614 -4.891563 7.190000 1.000000
615 -4.111562 7.190000 1.000000
616 -4.091563 6.410000 -1.000000
617 -3.311563 6.410000 -1.000000
618 -4.091563 7.190000 -1.000000
619 -3.311563 7.190000 -1.000000
620 -4.091563 6.410000 1.000000
621 -3.311563 6.410000 1.000000
622 -4.091563 7.190000 1.000000
623 -3.311563 7.190000 1.000000
624 -3.291562 6.410000 -1.000000
625 -2.511563 6.410000 -1.000000
626 -3.291562 7.190000 -1.000000
627 -2.511563 7.190000 -1.000000
628 -3.291562 6.410000 1.000000
629 -2.511563 6.410000 1.000000
630 -3.291562 7.190000 1.000000
631 -2.511563 7.190000 1.000000
632 -4.891563 7.210000 -1.000000
633 -4.111562 7.210000 -1.000000
634 -4.891563 7.990000 -1.000000
635 -4.111562 7.990000 -1.000000
636 -4.891563 7.210000 1.000000
637 -4.111562 7.210000 1.000000
638 -4.891563 7.990000 1.000000
639 -4.111562 7.990000 1.000000
640 -4.091563 7.210000 -1.000000
641 -3.311563 7.210000 -1.000000
642 -4.091563 7.990000 -1.000000
643 -3.311563 7.990000 -1.000000
644 -4.091563 7.210000 1.000000
645 -3.311563 7.210000 1.000000
646 -4.091563 7.990000 1.000000
647 -3.311563 7.990000 1.000000
648 -4.891563 8.010000 -1.000000
649 -4.111562 8.010000 -1.000000
650 -4.891563 8.790000 -1.000000
651 -4.111562 8.790000 -1.000000
652 -4.891563 8.010000 1.000000
653 -4.111562 8.010000 1.000000
654 -4.891563 8.790000 1.000000
655 -4.111562 8.790000 1.000000
656 -4.091563 8.010000 -1.000000
657 -3.311563 8.010000 -1.000000
658 -4.091563 8.790000 -1.000000
659 -3.311563 8.790000 -1.000000
660 -4.091563 8.010000 1.000000
661 -3.311563 8.010000 1.000000
662 -4.091563 8.790000 1.000000
663 -3.311563 8.790000 1.000000
664 4.952188 0.010000 -1.000000
665 5.732188 0.010000 -1.000000
666 4.952188 0.790000 -1.000000
667 5.732188 0.790000 -1.000000
668 4.952188 0.010000 1.000000
669 5.732188 0.010000 1.000000
670 4.952188 0.790000 1.000000
671 5.732188 0.790000 1.000000
672 5.752188 0.010000 -1.000000
673 6.532188 0.010000 -1.000000
674 5.752188 0.790000 -1.000000
675 6.532188 0.790000 -1.000000
676 5.752188 0.010000 1.000000
677 6.532188 0.010000 1.000000
678 5.752188 0.790000 1.000000
679 6.532188 0.790000 1.000000
680 6.552188 0.010000 -1.000000
681 7.332187 0.010000 -1.000000
682 6.552188 0.790000 -1.000000
683 7.332187 0.790000 -1.000000
684 6.552188 0.010000 1.000000
685 7.332187 0.010000 1.000000
686 6.552188 0.790000 1.000000
687 7.332187 0.790000 1.000000
688 5.752188 0.810000 -1.000000
689 6.532188 0.810000 -1.000000
690 5.752188 1.590000 -1.000000
691 6.532188 1.590000 -1.000000
692 5.752188 0.810000 1.000000
693 6.532188 0.810000 1.000000
694 5.752188 1.590000 1.000000
695 6.532188 1.590000 1.000000
696 6.552188 0.810000 -1.000000
697 7.332187 0.810000 -1.000000
698 6.552188 1.590000 -1.000000
699 7.332187 1.590000 -1.000000
700 6.552188 0.810000 1.000000
701 7.332187 0.810000 1.000000
702 6.552188 1.590000 1.000000
703 7.332187 1.590000 1.000000
704 5.752188 1.610000 -1.000000
705 6.532188 1.610000 -1.000000
706 5.752188 2.390000 -1.000000
707 6.532188 2.390000 -1.000000
708 5.752188 1.610000 1.000000
709 6.532188 1.610000 1.000000
710 5.752188 2.390000 1.000000
711 6.532188 2.390000 1.000000
712 6.552188 1.610000 -1.000000
713 7.332187 1.610000 -1.000000
714 6.552188 2.390000 -1.000000
715 7.332187 2.390000 -1.000000
716 6.552188 1.610000 1.000000
717 7.332187 1.610000 1.000000
718 6.552188 2.390000 1.000000
719 7.332187 2.390000 1.000000
720 5.752188 2.410000 -1.000000
721 6.532188 2.410000 -1.000000
722 5.752188 3.190000 -1.000000
723 6.532188 3.190000 -1.000000
724 5.752188 2.410000 1.000000
725 6.532188 2.410000 1.000000
726 5.752188 3.190000 1.000000
727 6.532188 3.190000 1.000000
728 6.552188 2.410000 -1.000000
729 7.332187 2.410000 -1.000000
730 6.552188 3.190000 -1.000000
731 7.332187 3.190000 -1.000000
732 6.552188 2.410000 1.000000
733 7.332187 2.410000 1.000000
734 6.552188 3.190000 1.000000
735 7.332187 3.190000 1.000000
736 5.752188 3.210000 -1.000000
737 6.532188 3.210000 -1.000000
738 5.752188 3.990000 -1.000000
739 6.532188 3.990000 -1.000000
740 5.752188 3.210000 1.000000
741 6.532188 3.210000 1.000000
742 5.752188 3.990000 1.000000
743 6.532188 3.990000 1.000000
744 6.552188 3.210000 -1.000000
745 7.332187 3.210000 -1.000000
746 6.552188 3.990000 -1.000000
747 7.332187 3.990000 -1.000000
748 6.552188 3.210000 1.000000
749 7.332187 3.210000 1.000000
750 6.552188 3.990000 1.000000
751 7.332187 3.990000 1.000000
752 5.752188 4.010000 -1.000000
753 6.532188 4.010000 -1.000000
754 5.752188 4.790000 -1.000000
755 6.532188 4.790000 -1.000000
756 5.752188 4.010000 1.000000
757 6.532188 4.010000 1.000000
758 5.752188 4.790000 1.000000
759 6.532188 4.790000 1.000000
760 6.552188 4.010000 -1.000000
761 7.332187 4.010000 -1.000000
762 6.552188 4.790000 -1.000000
763 7.332187 4.790000 -1.000000
764 6.552188 4.010000 1.000000
765 7.332187 4.010000 1.000000
766 6.552188 4.790000 1.000000
767 7.332187 4.790000 1.000000
768 5.752188 4.810000 -1.000000
769 6.532188 4.810000 -1.000000
770 5.752188 5.590000 -1.000000
771 6.532188 5.590000 -1.000000
772 5.752188 4.810000 1.000000
773 6.532188 4.810000 1.000000
774 5.752188 5.590000 1.000000
775 6.532188 5.590000 1.000000
776 6.552188 4.810000 -1.000000
777 7.332187 4.810000 -1.000000
778 6.552188 5.590000 -1.000000
779 7.332187 5.590000 -1.000000
780 6.552188 4.810000 1.000000
781 7.332187 4.810000 1.000000
782 6.552188 5.590000 1.000000
783 7.332187 5.590000 1.000000
784 5.752188 5.610000 -1.000000
785 6.532188 5.610000 -1.000000
786 5.752188 6.390000 -1.000000
787 6.532188 6.390000 -1.000000
788 5.752188 5.610000 1.000000
789 6.532188 5.610000 1.000000
790 5.752188 6.390000 1.000000
791 6.532188 6.390000 1.000000
792 6.552188 5.610000 -1.000000
793 7.332187 5.610000 -1.000000
794 6.552188 6.390000 -1.000000
795 7.332187 6.390000 -1.000000
796 6.552188 5.610000 1.000000
797 7.332187 5.610000 1.000000
798 6.552188 6.390000 1.000000
799 7.332187 6.390000 1.000000
800 5.752188 6.410000 -1.000000
801 6.532188 6.410000 -1.000000
802 5.752188 7.190000 -1.000000
803 6.532188 7.190000 -1.000000
804 5.752188 6.410000 1.000000
805 6.532188 6.410000 1.000000
806 5.752188 7.190000 1.000000
807 6.532188 7.190000 1.000000
808 6.552188 6.410000 -1.000000
809 7.332187 6.410000 -1.000000
810 6.552188 7.190000 -1.000000
811 7.332187 7.190000 -1.000000
812 6.552188 6.410000 1.000000
813 7.332187 6.410000 1.000000
814 6.552188 7.190000 1.000000
815 7.332187 7.190000 1.000000
816 5.752188 7.210000 -1.000000
817 6.532188 7.210000 -1.000000
818 5.752188 7.990000 -1.000000
819 6.532188 7.990000 -1.000000
820 5.752188 7.210000 1.000000
821 6.532188 7.210000 1.000000
822 5.752188 7.990000 1.000000
823 6.532188 7.990000 1.000000
824 6.552188 7.210000 -1.000000
825 7.332187 7.210000 -1.000000
826 6.552188 7.990000 -1.000000
827 7.332187 7.990000 -1.000000
828 6.552188 7.210000 1.000000
829 7.332187 7.210000 1.000000
830 6.552188 7.990000 1.000000
831 7.332187 7.990000 1.000000
832 9.752188 7.210000 -1.000000
833 10.532188 7.210000 -1.000000
834 9.752188 7.990000 -1.000000
835 10.532188 7.990000 -1.000000
836 9.752188 7.210000 1.000000
837 10.532188 7.210000 1.000000
838 9.752188 7.990000 1.000000
839 10.532188 7.990000 1.000000
840 2.552188 8.010000 -1.000000
841 3.332187 8.010000 -1.000000
842 2.552188 8.790000 -1.000000
843 3.332187 8.790000 -1.000000
844 2.552188 8.010000 1.000000
845 3.332187 8.010000 1.000000
846 2.552188 8.790000 1.000000
847 3.332187 8.790000 1.000000
848 5.752188 8.010000 -1.000000
849 6.532188 8.010000 -1.000000
850 5.752188 8.790000 -1.000000
851 6.532188 8.790000 -1.000000
852 5.752188 8.010000 1.000000
853 6.532188 8.010000 1.000000
854 5.752188 8.790000 1.000000
855 6.532188 8.790000 1.000000
856 6.552188 8.010000 -1.000000
857 7.332187 8.010000 -1.000000
858 6.552188 8.790000 -1.000000
859 7.332187 8.790000 -1.000000
860 6.552188 8.010000 1.000000
861 7.332187 8.010000 1.000000
862 6.552188 8.790000 1.000000
863 7.332187 8.790000 1.000000
864 9.752188 8.010000 -1.000000
865 10.532188 8.010000 -1.000000
866 9.752188 8.790000 -1.000000
867 10.532188 8.790000 -1.000000
868 9.752188 8.010000 1.000000
869 10.532188 8.010000 1.000000
870 9.752188 8.790000 1.000000
871 10.532188 8.790000 1.000000
872 2.552188 8.810000 -1.000000
873 3.332187 8.810000 -1.000000
874 2.552188 9.590000 -1.000000
875 3.332187 9.590000 -1.000000
876 2.552188 8.810000 1.000000
877 3.332187 8.810000 1.000000
878 2.552188 9.590000 1.000000
879 3.332187 9.590000 1.000000
880 3.352188 8.810000 -1.000000
881 4.132187 8.810000 -1.000000
882 3.352188 9.590000 -1.000000
883 4.132187 9.590000 -1.000000
884 3.352188 8.810000 1.000000
885 4.132187 8.810000 1.000000
886 3.352188 9.590000 1.000000
887 4.132187 9.590000 1.000000
888 4.152188 8.810000 -1.000000
889 4.932187 8.810000 -1.000000
890 4.152188 9.590000 -1.000000
891 4.932187 9.590000 -1.000000
892 4.152188 8.810000 1.000000
893 4.932187 8.810000 1.000000
894 4.152188 9.590000 1.000000
895 4.932187 9.590000 1.000000
896 4.952188 8.810000 -1.000000
897 5.732188 8.810000 -1.000000
898 4.952188 9.590000 -1.000000
899 5.732188 9.590000 -1.000000
900 4.952188 8.810000 1.000000
901 5.732188 8.810000 1.000000
902 4.952188 9.590000 1.000000
903 5.732188 9.590000 1.000000
904 5.752188 8.810000 -1.000000
905 6.532188 8.810000 -1.000000
906 5.752188 9.590000 -1.000000
907 6.532188 9.590000 -1.000000
908 5.752188 8.810000 1.000000
909 6.532188 8.810000 1.000000
910 5.752188 9.590000 1.000000
911 6.532188 9.590000 1.000000
912 6.552188 8.810000 -1.000000
913 7.332187 8.810000 -1.000000
914 6.552188 9.590000 -1.000000
915 7.332187 9.590000 -1.000000
916 6.552188 8.810000 1.000000
917 7.332187 8.810000 1.000000
918 6.552188 9.590000 1.000000
919 7.332187 9.590000 1.000000
920 7.352188 8.810000 -1.000000
921 8.132187 8.810000 -1.000000
922 7.352188 9.590000 -1.000000
923 8.132187 9.590000 -1.000000
924 7.352188 8.810000 1.000000
925 8.132187 8.810000 1.000000
926 7.352188 9.590000 1.000000
927 8.132187 9.590000 1.000000
928 8.152188 8.810000 -1.000000
929 8.932187 8.810000 -1.000000
930 8.152188 9.590000 -1.000000
931 8.932187 9.590000 -1.000000
932 8.152188 8.810000 1.000000
933 8.932187 8.810000 1.000000
934 8.152188 9.590000 1.000000
935 8.932187 9.590000 1.000000
936 8.952188 8.810000 -1.000000
937 9.732188 8.810000 -1.000000
938 8.952188 9.590000 -1.000000
939 9.732188 9.590000 -1.000000
940 8.952188 8.810000 1.000000
941 9.732188 8.810000 1.000000
942 8.952188 9.590000 1.000000
943 9.732188 9.590000 1.000000
944 9.752188 8.810000 -1.000000
945 10.532188 8.810000 -1.000000
946 9.752188 9.590000 -1.000000
947 10.532188 9.590000 -1.000000
948 9.752188 8.810000 1.000000
949 10.532188 8.810000 1.000000
950 9.752188 9.590000 1.000000
951 10.532188 9.590000 1.000000
952 12.730937 0.010000 -1.000000
953 13.510937 0.010000 -1.000000
954 12.730937 0.790000 -1.000000
955 13.510937 0.790000 -1.000000
956 12.730937 0.010000 1.000000
957 13.510937 0.010000 1.000000
958 12.730937 0.790000 1.000000
959 13.510937 0.790000 1.000000
960 13.530938 0.010000 -1.000000
961 14.310937 0.010000 -1.000000
962 13.530938 0.790000 -1.000000
963 14.310937 0.790000 -1.000000
964 13.530938 0.010000 1.000000
965 14.310937 0.010000 1.000000
966 13.530938 0.790000 1.000000
967 14.310937 0.790000 1.000000
968 14.330937 0.010000 -1.000000
969 15.110937 0.010000 -1.000000
970 14.330937 0.790000 -1.000000
971 15.110937 0.790000 -1.000000
972 14.330937 0.010000 1.000000
973 15.110937 0.010000 1.000000
974 14.330937 0.790000 1.000000
975 15.110937 0.790000 1.000000
976 15.130937 0.010000 -1.000000
977 15.910937 0.010000 -1.000000
978 15.130937 0.790000 -1.000000
979 15.910937 0.790000 -1.000000
980 15.130937 0.010000 1.000000
981 15.910937 0.010000 1.000000
982 15.130937 0.790000 1.000000
983 15.910937 0.790000 1.000000
984 15.930938 0.010000 -1.000000
985 16.710937 0.010000 -1.000000
986 15.930938 0.790000 -1.000000
987 16.710937 0.790000 -1.000000
988 15.930938 0.010000 1.000000
989 16.710937 0.010000 1.000000
990 15.930938 0.790000 1.000000
991 16.710937 0.790000 1.000000
992 16.730937 0.010000 -1.000000
993 17.510937 0.010000 -1.000000
994 16.730937 0.790000 -1.000000
995 17.510937 0.790000 -1.000000
996 16.730937 0.010000 1.000000
997 17.510937 0.010000 1.000000
998 16.730937 0.790000 1.000000
999 17.510937 0.790000 1.000000
1000 17.530938 0.010000 -1.000000
1001 18.310937 0.010000 -1.000000
1002 17.530938 0.790000 -1.000000
1003 18.310937 0.790000 -1.000000
1004 17.530938 0.010000 1.000000
1005 18.310937 0.010000 1.000000
1006 17.530938 0.790000 1.000000
1007 18.310937 0.790000 1.000000
1008 18.330937 0.010000 -1.000000
1009 19.110937 0.010000 -1.000000
1010 18.330937 0.790000 -1.000000
1011 19.110937 0.790000 -1.000000
1012 18.330937 0.010000 1.000000
1013 19.110937 0.010000 1.000000
1014 18.330937 0.790000 1.000000
1015 19.110937 0.790000 1.000000
1016 13.530938 0.810000 -1.000000
1017 14.310937 0.810000 -1.000000
1018 13.530938 1.590000 -1.000000
1019 14.310937 1.590000 -1.000000
1020 13.530938 0.810000 1.000000
1021 14.310937 0.810000 1.000000
1022 13.530938 1.590000 1.000000
1023 14.310937 1.590000 1.000000
1024 13.530938 1.610000 -1.000000
1025 14.310937 1.610000 -1.000000
1026 13.530938 2.390000 -1.000000
1027 14.310937 2.390000 -1.000000
1028 13.530938 1.610000 1.000000
1029 14.310937 1.610000 1.000000
1030 13.530938 2.390000 1.000000
1031 14.310937 2.390000 1.000000
1032 19.130938 1.610000 -1.000000
1033 19.910938 1.610000 -1.000000
1034 19.130938 2.390000 -1.000000
1035 19.910938 2.390000 -1.000000
1036 19.130938 1.610000 1.000000
1037 19.910938 1.610000 1.000000
1038 19.130938 2.390000 1.000000
1039 19.910938 2.390000 1.000000
1040 13.530938 2.410000 -1.000000
1041 14.310937 2.410000 -1.000000
1042 13.530938 3.190000 -1.000000
1043 14.310937 3.190000 -1.000000
1044 13.530938 2.410000 1.000000
1045 14.310937 2.410000 1.000000
1046 13.530938 3.190000 1.000000
1047 14.310937 3.190000 1.000000
1048 13.530938 3.210000 -1.000000
1049 14.310937 3.210000 -1.000000
1050 13.530938 3.990000 -1.000000
1051 14.310937 3.990000 -1.000000
1052 13.530938 3.210000 1.000000
1053 14.310937 3.210000 1.000000
1054 13.530938 3.990000 1.000000
1055 14.310937 3.990000 1.000000
1056 13.530938 4.010000 -1.000000
1057 14.310937 4.010000 -1.000000
1058 13.530938 4.790000 -1.000000
1059 14.310937 4.790000 -1.000000
1060 13.530938 4.010000 1.000000
1061 14.310937 4.010000 1.000000
1062 13.530938 4.790000 1.000000
1063 14.310937 4.790000 1.000000
1064 17.530938 4.010000 -1.000000
1065 18.310937 4.010000 -1.000000
1066 17.530938 4.790000 -1.000000
1067 18.310937 4.790000 -1.000000
1068 17.530938 4.010000 1.000000
1069 18.310937 4.010000 1.000000
1070 17.530938 4.790000 1.000000
1071 18.310937 4.790000 1.000000
1072 13.530938 4.810000 -1.000000
1073 14.310937 4.810000 -1.000000
1074 13.530938 5.590000 -1.000000
1075 14.310937 5.590000 -1.000000
1076 13.530938 4.810000 1.000000
1077 14.310937 4.810000 1.000000
1078 13.530938 5.590000 1.000000
1079 14.310937 5.590000 1.000000
1080 17.530938 4.810000 -1.000000
1081 18.310937 4.810000 -1.000000
1082 17.530938 5.590000 -1.000000
1083 18.310937 5.590000 -1.000000
1084 17.530938 4.810000 1.000000
1085 18.310937 4.810000 1.000000
1086 17.530938 5.590000 1.000000
1087 18.310937 5.590000 1.000000
1088 13.530938 5.610000 -1.000000
1089 14.310937 5.610000 -1.000000
1090 13.530938 6.390000 -1.000000
1091 14.310937 6.390000 -1.000000
1092 13.530938 5.610000 1.000000
1093 14.310937 5.610000 1.000000
1094 13.530938 6.390000 1.000000
1095 14.310937 6.390000 1.000000
1096 13.530938 6.410000 -1.000000
1097 14.310937 6.410000 -1.000000
1098 13.530938 7.190000 -1.000000
1099 14.310937 7.190000 -1.000000
1100 13.530938 6.410000 1.000000
1101 14.310937 6.410000 1.000000
1102 13.530938 7.190000 1.000000
1103 14.310937 7.190000 1.000000
1104 13.530938 7.210000 -1.000000
1105 14.310937 7.210000 -1.000000
1106 13.530938 7.990000 -1.000000
1107 14.310937 7.990000 -1.000000
1108 13.530938 7.210000 1.000000
1109 14.310937 7.210000 1.000000
1110 13.530938 7.990000 1.000000
1111 14.310937 7.990000 1.000000
1112 13.530938 8.010000 -1.000000
1113 14.310937 8.010000 -1.000000
1114 13.530938 8.790000 -1.000000
1115 14.310937 8.790000 -1.000000
1116 13.530938 8.010000 1.000000
1117 14.310937 8.010000 1.000000
1118 13.530938 8.790000 1.000000
1119 14.310937 8.790000 1.000000
1120 18.330937 8.010000 -1.000000
1121 19.110937 8.010000 -1.000000
1122 18.330937 8.790000 -1.000000
1123 19.110937 8.790000 -1.000000
1124 18.330937 8.010000 1.000000
1125 19.110937 8.010000 1.000000
1126 18.330937 8.790000 1.000000
1127 19.110937 8.790000 1.000000
1128 11.930938 8.810000 -1.000000
1129 12.710937 8.810000 -1.000000
1130 11.930938 9.590000 -1.000000
1131 12.710937 9.590000 -1.000000
1132 11.930938 8.810000 1.000000
1133 12.710937 8.810000 1.000000
1134 11.930938 9.590000 1.000000
1135 12.710937 9.590000 1.000000
1136 12.730937 8.810000 -1.000000
1137 13.510937 8.810000 -1.000000
1138 12.730937 9.590000 -1.000000
1139 13.510937 9.590000 -1.000000
1140 12.730937 8.810000 1.000000
1141 13.510937 8.810000 1.000000
1142 12.730937 9.590000 1.000000
1143 13.510937 9.590000 1.000000
1144 13.530938 8.810000 -1.000000
1145 14.310937 8.810000 -1.000000
1146 13.530938 9.590000 -1.000000
1147 14.310937 9.590000 -1.000000
1148 13.530938 8.810000 1.000000
1149 14.310937 8.810000 1.000000
1150 13.530938 9.590000 1.000000
1151 14.310937 9.590000 1.000000
1152 14.330937 8.810000 -1.000000
1153 15.110937 8.810000 -1.000000
1154 14.330937 9.590000 -1.000000
1155 15.110937 9.590000 -1.000000
1156 14.330937 8.810000 1.000000
1157 15.110937 8.810000 1.000000
1158 14.330937 9.590000 1.000000
1159 15.110937 9.590000 1.000000
1160 15.130937 8.810000 -1.000000
1161 15.910937 8.810000 -1.000000
1162 15.130937 9.590000 -1.000000
1163 15.910937 9.590000 -1.000000
1164 15.130937 8.810000 1.000000
1165 15.910937 8.810000 1.000000
1166 15.130937 9.590000 1.000000
1167 15.910937 9.590000 1.000000
1168 15.930938 8.810000 -1.000000
1169 16.710937 8.810000 -1.000000
1170 15.930938 9.590000 -1.000000
1171 16.710937 9.590000 -1.000000
1172 15.930938 8.810000 1.000000
1173 16.710937 8.810000 1.000000
1174 15.930938 9.590000 1.000000
1175 16.710937 9.590000 1.000000
1176 16.730937 8.810000 -1.000000
1177 17.510937 8.810000 -1.000000
1178 16.730937 9.590000 -1.000000
1179 17.510937 9.590000 -1.000000
1180 16.730937 8.810000 1.000000
1181 17.510937 8.810000 1.000000
1182 16.730937 9.590000 1.000000
1183 17.510937 9.590000 1.000000
1184 17.530938 8.810000 -1.000000
1185 18.310937 8.810000 -1.000000
1186 17.530938 9.590000 -1.000000
1187 18.310937 9.590000 -1.000000
1188 17.530938 8.810000 1.000000
1189 18.310937 8.810000 1.000000
1190 17.530938 9.590000 1.000000
1191 18.310937 9.590000 1.000000
1192 18.330937 8.810000 -1.000000
1193 19.110937 8.810000 -1.000000
1194 18.330937 9.590000 -1.000000
1195 19.110937 9.590000 -1.000000
1196 18.330937 8.810000 1.000000
1197 19.110937 8.810000 1.000000
1198 18.330937 9.590000 1.000000
1199 19.110937 9.590000 1.000000
