900 4 1
0 0 1 3 7 400
1 0 3 2 7 400
2 0 2 6 7 400
3 0 6 4 7 400
4 0 4 5 7 400
5 0 5 1 7 400
6 8 9 11 15 400
7 8 11 10 15 400
8 8 10 14 15 400
9 8 14 12 15 400
10 8 12 13 15 400
11 8 13 9 15 400
12 16 17 19 23 400
13 16 19 18 23 400
14 16 18 22 23 400
15 16 22 20 23 400
16 16 20 21 23 400
17 16 21 17 23 400
18 24 25 27 31 400
19 24 27 26 31 400
20 24 26 30 31 400
21 24 30 28 31 400
22 24 28 29 31 400
23 24 29 25 31 400
24 32 33 35 39 400
25 32 35 34 39 400
26 32 34 38 39 400
27 32 38 36 39 400
28 32 36 37 39 400
29 32 37 33 39 400
30 40 41 43 47 400
31 40 43 42 47 400
32 40 42 46 47 400
33 40 46 44 47 400
34 40 44 45 47 400
35 40 45 41 47 400
36 48 49 51 55 400
37 48 51 50 55 400
38 48 50 54 55 400
39 48 54 52 55 400
40 48 52 53 55 400
41 48 53 49 55 400
42 56 57 59 63 400
43 56 59 58 63 400
44 56 58 62 63 400
45 56 62 60 63 400
46 56 60 61 63 400
47 56 61 57 63 400
48 64 65 67 71 400
49 64 67 66 71 400
50 64 66 70 71 400
51 64 70 68 71 400
52 64 68 69 71 400
53 64 69 65 71 400
54 72 73 75 79 400
55 72 75 74 79 400
56 72 74 78 79 400
57 72 78 76 79 400
58 72 76 77 79 400
59 72 77 73 79 400
60 80 81 83 87 400
61 80 83 82 87 400
62 80 82 86 87 400
63 80 86 84 87 400
64 80 84 85 87 400
65 80 85 81 87 400
66 88 89 91 95 400
67 88 91 90 95 400
68 88 90 94 95 400
69 88 94 92 95 400
70 88 92 93 95 400
71 88 93 89 95 400
72 96 97 99 103 400
73 96 99 98 103 400
74 96 98 102 103 400
75 96 102 100 103 400
76 96 100 101 103 400
77 96 101 97 103 400
78 104 105 107 111 400
79 104 107 106 111 400
80 104 106 110 111 400
81 104 110 108 111 400
82 104 108 109 111 400
83 104 109 105 111 400
84 112 113 115 119 400
85 112 115 114 119 400
86 112 114 118 119 400
87 112 118 116 119 400
88 112 116 117 119 400
89 112 117 113 119 400
90 120 121 123 127 400
91 120 123 122 127 400
92 120 122 126 127 400
93 120 126 124 127 400
94 120 124 125 127 400
95 120 125 121 127 400
96 128 129 131 135 400
97 128 131 130 135 400
98 128 130 134 135 400
99 128 134 132 135 400
100 128 132 133 135 400
101 128 133 129 135 400
102 136 137 139 143 400
103 136 139 138 143 400
104 136 138 142 143 400
105 136 142 140 143 400
106 136 140 141 143 400
107 136 141 137 143 400
108 144 145 147 151 400
109 144 147 146 151 400
110 144 146 150 151 400
111 144 150 148 151 400
112 144 148 149 151 400
113 144 149 145 151 400
114 152 153 155 159 400
115 152 155 154 159 400
116 152 154 158 159 400
117 152 158 156 159 400
118 152 156 157 159 400
119 152 157 153 159 400
120 160 161 163 167 400
121 160 163 162 167 400
122 160 162 166 167 400
123 160 166 164 167 400
124 160 164 165 167 400
125 160 165 161 167 400
126 168 169 171 175 400
127 168 171 170 175 400
128 168 170 174 175 400
129 168 174 172 175 400
130 168 172 173 175 400
131 168 173 169 175 400
132 176 177 179 183 400
133 176 179 178 183 400
134 176 178 182 183 400
135 176 182 180 183 400
136 176 180 181 183 400
137 176 181 177 183 400
138 184 185 187 191 400
139 184 187 186 191 400
140 184 186 190 191 400
141 184 190 188 191 400
142 184 188 189 191 400
143 184 189 185 191 400
144 192 193 195 199 400
145 192 195 194 199 400
146 192 194 198 199 400
147 192 198 196 199 400
148 192 196 197 199 400
149 192 197 193 199 400
150 200 201 203 207 400
151 200 203 202 207 400
152 200 202 206 207 400
153 200 206 204 207 400
154 200 204 205 207 400
155 200 205 201 207 400
156 208 209 211 215 400
157 208 211 210 215 400
158 208 210 214 215 400
159 208 214 212 215 400
160 208 212 213 215 400
161 208 213 209 215 400
162 216 217 219 223 400
163 216 219 218 223 400
164 216 218 222 223 400
165 216 222 220 223 400
166 216 220 221 223 400
167 216 221 217 223 400
168 224 225 227 231 400
169 224 227 226 231 400
170 224 226 230 231 400
171 224 230 228 231 400
172 224 228 229 231 400
173 224 229 225 231 400
174 232 233 235 239 400
175 232 235 234 239 400
176 232 234 238 239 400
177 232 238 236 239 400
178 232 236 237 239 400
179 232 237 233 239 400
180 240 241 243 247 400
181 240 243 242 247 400
182 240 242 246 247 400
183 240 246 244 247 400
184 240 244 245 247 400
185 240 245 241 247 400
186 248 249 251 255 400
187 248 251 250 255 400
188 248 250 254 255 400
189 248 254 252 255 400
190 248 252 253 255 400
191 248 253 249 255 400
192 256 257 259 263 400
193 256 259 258 263 400
194 256 258 262 263 400
195 256 262 260 263 400
196 256 260 261 263 400
197 256 261 257 263 400
198 264 265 267 271 400
199 264 267 266 271 400
200 264 266 270 271 400
201 264 270 268 271 400
202 264 268 269 271 400
203 264 269 265 271 400
204 272 273 275 279 400
205 272 275 274 279 400
206 272 274 278 279 400
207 272 278 276 279 400
208 272 276 277 279 400
209 272 277 273 279 400
210 280 281 283 287 400
211 280 283 282 287 400
212 280 282 286 287 400
213 280 286 284 287 400
214 280 284 285 287 400
215 280 285 281 287 400
216 288 289 291 295 400
217 288 291 290 295 400
218 288 290 294 295 400
219 288 294 292 295 400
220 288 292 293 295 400
221 288 293 289 295 400
222 296 297 299 303 400
223 296 299 298 303 400
224 296 298 302 303 400
225 296 302 300 303 400
226 296 300 301 303 400
227 296 301 297 303 400
228 304 305 307 311 400
229 304 307 306 311 400
230 304 306 310 311 400
231 304 310 308 311 400
232 304 308 309 311 400
233 304 309 305 311 400
234 312 313 315 319 400
235 312 315 314 319 400
236 312 314 318 319 400
237 312 318 316 319 400
238 312 316 317 319 400
239 312 317 313 319 400
240 320 321 323 327 400
241 320 323 322 327 400
242 320 322 326 327 400
243 320 326 324 327 400
244 320 324 325 327 400
245 320 325 321 327 400
246 328 329 331 335 400
247 328 331 330 335 400
248 328 330 334 335 400
249 328 334 332 335 400
250 328 332 333 335 400
251 328 333 329 335 400
252 336 337 339 343 500
253 336 339 338 343 500
254 336 338 342 343 500
255 336 342 340 343 500
256 336 340 341 343 500
257 336 341 337 343 500
258 344 345 347 351 500
259 344 347 346 351 500
260 344 346 350 351 500
261 344 350 348 351 500
262 344 348 349 351 500
263 344 349 345 351 500
264 352 353 355 359 500
265 352 355 354 359 500
266 352 354 358 359 500
267 352 358 356 359 500
268 352 356 357 359 500
269 352 357 353 359 500
270 360 361 363 367 500
271 360 363 362 367 500
272 360 362 366 367 500
273 360 366 364 367 500
274 360 364 365 367 500
275 360 365 361 367 500
276 368 369 371 375 500
277 368 371 370 375 500
278 368 370 374 375 500
279 368 374 372 375 500
280 368 372 373 375 500
281 368 373 369 375 500
282 376 377 379 383 500
283 376 379 378 383 500
284 376 378 382 383 500
285 376 382 380 383 500
286 376 380 381 383 500
287 376 381 377 383 500
288 384 385 387 391 500
289 384 387 386 391 500
290 384 386 390 391 500
291 384 390 388 391 500
292 384 388 389 391 500
293 384 389 385 391 500
294 392 393 395 399 500
295 392 395 394 399 500
296 392 394 398 399 500
297 392 398 396 399 500
298 392 396 397 399 500
299 392 397 393 399 500
300 400 401 403 407 500
301 400 403 402 407 500
302 400 402 406 407 500
303 400 406 404 407 500
304 400 404 405 407 500
305 400 405 401 407 500
306 408 409 411 415 500
307 408 411 410 415 500
308 408 410 414 415 500
309 408 414 412 415 500
310 408 412 413 415 500
311 408 413 409 415 500
312 416 417 419 423 500
313 416 419 418 423 500
314 416 418 422 423 500
315 416 422 420 423 500
316 416 420 421 423 500
317 416 421 417 423 500
318 424 425 427 431 500
319 424 427 426 431 500
320 424 426 430 431 500
321 424 430 428 431 500
322 424 428 429 431 500
323 424 429 425 431 500
324 432 433 435 439 500
325 432 435 434 439 500
326 432 434 438 439 500
327 432 438 436 439 500
328 432 436 437 439 500
329 432 437 433 439 500
330 440 441 443 447 500
331 440 443 442 447 500
332 440 442 446 447 500
333 440 446 444 447 500
334 440 444 445 447 500
335 440 445 441 447 500
336 448 449 451 455 500
337 448 451 450 455 500
338 448 450 454 455 500
339 448 454 452 455 500
340 448 452 453 455 500
341 448 453 449 455 500
342 456 457 459 463 500
343 456 459 458 463 500
344 456 458 462 463 500
345 456 462 460 463 500
346 456 460 461 463 500
347 456 461 457 463 500
348 464 465 467 471 500
349 464 467 466 471 500
350 464 466 470 471 500
351 464 470 468 471 500
352 464 468 469 471 500
353 464 469 465 471 500
354 472 473 475 479 500
355 472 475 474 479 500
356 472 474 478 479 500
357 472 478 476 479 500
358 472 476 477 479 500
359 472 477 473 479 500
360 480 481 483 487 500
361 480 483 482 487 500
362 480 482 486 487 500
363 480 486 484 487 500
364 480 484 485 487 500
365 480 485 481 487 500
366 488 489 491 495 500
367 488 491 490 495 500
368 488 490 494 495 500
369 488 494 492 495 500
370 488 492 493 495 500
371 488 493 489 495 500
372 496 497 499 503 500
373 496 499 498 503 500
374 496 498 502 503 500
375 496 502 500 503 500
376 496 500 501 503 500
377 496 501 497 503 500
378 504 505 507 511 500
379 504 507 506 511 500
380 504 506 510 511 500
381 504 510 508 511 500
382 504 508 509 511 500
383 504 509 505 511 500
384 512 513 515 519 500
385 512 515 514 519 500
386 512 514 518 519 500
387 512 518 516 519 500
388 512 516 517 519 500
389 512 517 513 519 500
390 520 521 523 527 500
391 520 523 522 527 500
392 520 522 526 527 500
393 520 526 524 527 500
394 520 524 525 527 500
395 520 525 521 527 500
396 528 529 531 535 500
397 528 531 530 535 500
398 528 530 534 535 500
399 528 534 532 535 500
400 528 532 533 535 500
401 528 533 529 535 500
402 536 537 539 543 500
403 536 539 538 543 500
404 536 538 542 543 500
405 536 542 540 543 500
406 536 540 541 543 500
407 536 541 537 543 500
408 544 545 547 551 500
409 544 547 546 551 500
410 544 546 550 551 500
411 544 550 548 551 500
412 544 548 549 551 500
413 544 549 545 551 500
414 552 553 555 559 500
415 552 555 554 559 500
416 552 554 558 559 500
417 552 558 556 559 500
418 552 556 557 559 500
419 552 557 553 559 500
420 560 561 563 567 500
421 560 563 562 567 500
422 560 562 566 567 500
423 560 566 564 567 500
424 560 564 565 567 500
425 560 565 561 567 500
426 568 569 571 575 500
427 568 571 570 575 500
428 568 570 574 575 500
429 568 574 572 575 500
430 568 572 573 575 500
431 568 573 569 575 500
432 576 577 579 583 500
433 576 579 578 583 500
434 576 578 582 583 500
435 576 582 580 583 500
436 576 580 581 583 500
437 576 581 577 583 500
438 584 585 587 591 500
439 584 587 586 591 500
440 584 586 590 591 500
441 584 590 588 591 500
442 584 588 589 591 500
443 584 589 585 591 500
444 592 593 595 599 500
445 592 595 594 599 500
446 592 594 598 599 500
447 592 598 596 599 500
448 592 596 597 599 500
449 592 597 593 599 500
450 600 601 603 607 500
451 600 603 602 607 500
452 600 602 606 607 500
453 600 606 604 607 500
454 600 604 605 607 500
455 600 605 601 607 500
456 608 609 611 615 500
457 608 611 610 615 500
458 608 610 614 615 500
459 608 614 612 615 500
460 608 612 613 615 500
461 608 613 609 615 500
462 616 617 619 623 500
463 616 619 618 623 500
464 616 618 622 623 500
465 616 622 620 623 500
466 616 620 621 623 500
467 616 621 617 623 500
468 624 625 627 631 500
469 624 627 626 631 500
470 624 626 630 631 500
471 624 630 628 631 500
472 624 628 629 631 500
473 624 629 625 631 500
474 632 633 635 639 500
475 632 635 634 639 500
476 632 634 638 639 500
477 632 638 636 639 500
478 632 636 637 639 500
479 632 637 633 639 500
480 640 641 643 647 500
481 640 643 642 647 500
482 640 642 646 647 500
483 640 646 644 647 500
484 640 644 645 647 500
485 640 645 641 647 500
486 648 649 651 655 500
487 648 651 650 655 500
488 648 650 654 655 500
489 648 654 652 655 500
490 648 652 653 655 500
491 648 653 649 655 500
492 656 657 659 663 500
493 656 659 658 663 500
494 656 658 662 663 500
495 656 662 660 663 500
496 656 660 661 663 500
497 656 661 657 663 500
498 664 665 667 671 600
499 664 667 666 671 600
500 664 666 670 671 600
501 664 670 668 671 600
502 664 668 669 671 600
503 664 669 665 671 600
504 672 673 675 679 600
505 672 675 674 679 600
506 672 674 678 679 600
507 672 678 676 679 600
508 672 676 677 679 600
509 672 677 673 679 600
510 680 681 683 687 600
511 680 683 682 687 600
512 680 682 686 687 600
513 680 686 684 687 600
514 680 684 685 687 600
515 680 685 681 687 600
516 688 689 691 695 600
517 688 691 690 695 600
518 688 690 694 695 600
519 688 694 692 695 600
520 688 692 693 695 600
521 688 693 689 695 600
522 696 697 699 703 600
523 696 699 698 703 600
524 696 698 702 703 600
525 696 702 700 703 600
526 696 700 701 703 600
527 696 701 697 703 600
528 704 705 707 711 600
529 704 707 706 711 600
530 704 706 710 711 600
531 704 710 708 711 600
532 704 708 709 711 600
533 704 709 705 711 600
534 712 713 715 719 600
535 712 715 714 719 600
536 712 714 718 719 600
537 712 718 716 719 600
538 712 716 717 719 600
539 712 717 713 719 600
540 720 721 723 727 600
541 720 723 722 727 600
542 720 722 726 727 600
543 720 726 724 727 600
544 720 724 725 727 600
545 720 725 721 727 600
546 728 729 731 735 600
547 728 731 730 735 600
548 728 730 734 735 600
549 728 734 732 735 600
550 728 732 733 735 600
551 728 733 729 735 600
552 736 737 739 743 600
553 736 739 738 743 600
554 736 738 742 743 600
555 736 742 740 743 600
556 736 740 741 743 600
557 736 741 737 743 600
558 744 745 747 751 600
559 744 747 746 751 600
560 744 746 750 751 600
561 744 750 748 751 600
562 744 748 749 751 600
563 744 749 745 751 600
564 752 753 755 759 600
565 752 755 754 759 600
566 752 754 758 759 600
567 752 758 756 759 600
568 752 756 757 759 600
569 752 757 753 759 600
570 760 761 763 767 600
571 760 763 762 767 600
572 760 762 766 767 600
573 760 766 764 767 600
574 760 764 765 767 600
575 760 765 761 767 600
576 768 769 771 775 600
577 768 771 770 775 600
578 768 770 774 775 600
579 768 774 772 775 600
580 768 772 773 775 600
581 768 773 769 775 600
582 776 777 779 783 600
583 776 779 778 783 600
584 776 778 782 783 600
585 776 782 780 783 600
586 776 780 781 783 600
587 776 781 777 783 600
588 784 785 787 791 600
589 784 787 786 791 600
590 784 786 790 791 600
591 784 790 788 791 600
592 784 788 789 791 600
593 784 789 785 791 600
594 792 793 795 799 600
595 792 795 794 799 600
596 792 794 798 799 600
597 792 798 796 799 600
598 792 796 797 799 600
599 792 797 793 799 600
600 800 801 803 807 600
601 800 803 802 807 600
602 800 802 806 807 600
603 800 806 804 807 600
604 800 804 805 807 600
605 800 805 801 807 600
606 808 809 811 815 600
607 808 811 810 815 600
608 808 810 814 815 600
609 808 814 812 815 600
610 808 812 813 815 600
611 808 813 809 815 600
612 816 817 819 823 600
613 816 819 818 823 600
614 816 818 822 823 600
615 816 822 820 823 600
616 816 820 821 823 600
617 816 821 817 823 600
618 824 825 827 831 600
619 824 827 826 831 600
620 824 826 830 831 600
621 824 830 828 831 600
622 824 828 829 831 600
623 824 829 825 831 600
624 832 833 835 839 600
625 832 835 834 839 600
626 832 834 838 839 600
627 832 838 836 839 600
628 832 836 837 839 600
629 832 837 833 839 600
630 840 841 843 847 600
631 840 843 842 847 600
632 840 842 846 847 600
633 840 846 844 847 600
634 840 844 845 847 600
635 840 845 841 847 600
636 848 849 851 855 600
637 848 851 850 855 600
638 848 850 854 855 600
639 848 854 852 855 600
640 848 852 853 855 600
641 848 853 849 855 600
642 856 857 859 863 600
643 856 859 858 863 600
644 856 858 862 863 600
645 856 862 860 863 600
646 856 860 861 863 600
647 856 861 857 863 600
648 864 865 867 871 600
649 864 867 866 871 600
650 864 866 870 871 600
651 864 870 868 871 600
652 864 868 869 871 600
653 864 869 865 871 600
654 872 873 875 879 600
655 872 875 874 879 600
656 872 874 878 879 600
657 872 878 876 879 600
658 872 876 877 879 600
659 872 877 873 879 600
660 880 881 883 887 600
661 880 883 882 887 600
662 880 882 886 887 600
663 880 886 884 887 600
664 880 884 885 887 600
665 880 885 881 887 600
666 888 889 891 895 600
667 888 891 890 895 600
668 888 890 894 895 600
669 888 894 892 895 600
670 888 892 893 895 600
671 888 893 889 895 600
672 896 897 899 903 600
673 896 899 898 903 600
674 896 898 902 903 600
675 896 902 900 903 600
676 896 900 901 903 600
677 896 901 897 903 600
678 904 905 907 911 600
679 904 907 906 911 600
680 904 906 910 911 600
681 904 910 908 911 600
682 904 908 909 911 600
683 904 909 905 911 600
684 912 913 915 919 600
685 912 915 914 919 600
686 912 914 918 919 600
687 912 918 916 919 600
688 912 916 917 919 600
689 912 917 913 919 600
690 920 921 923 927 600
691 920 923 922 927 600
692 920 922 926 927 600
693 920 926 924 927 600
694 920 924 925 927 600
695 920 925 921 927 600
696 928 929 931 935 600
697 928 931 930 935 600
698 928 930 934 935 600
699 928 934 932 935 600
700 928 932 933 935 600
701 928 933 929 935 600
702 936 937 939 943 600
703 936 939 938 943 600
704 936 938 942 943 600
705 936 942 940 943 600
706 936 940 941 943 600
707 936 941 937 943 600
708 944 945 947 951 600
709 944 947 946 951 600
710 944 946 950 951 600
711 944 950 948 951 600
712 944 948 949 951 600
713 944 949 945 951 600
714 952 953 955 959 700
715 952 955 954 959 700
716 952 954 958 959 700
717 952 958 956 959 700
718 952 956 957 959 700
719 952 957 953 959 700
720 960 961 963 967 700
721 960 963 962 967 700
722 960 962 966 967 700
723 960 966 964 967 700
724 960 964 965 967 700
725 960 965 961 967 700
726 968 969 971 975 700
727 968 971 970 975 700
728 968 970 974 975 700
729 968 974 972 975 700
730 968 972 973 975 700
731 968 973 969 975 700
732 976 977 979 983 700
733 976 979 978 983 700
734 976 978 982 983 700
735 976 982 980 983 700
736 976 980 981 983 700
737 976 981 977 983 700
738 984 985 987 991 700
739 984 987 986 991 700
740 984 986 990 991 700
741 984 990 988 991 700
742 984 988 989 991 700
743 984 989 985 991 700
744 992 993 995 999 700
745 992 995 994 999 700
746 992 994 998 999 700
747 992 998 996 999 700
748 992 996 997 999 700
749 992 997 993 999 700
750 1000 1001 1003 1007 700
751 1000 1003 1002 1007 700
752 1000 1002 1006 1007 700
753 1000 1006 1004 1007 700
754 1000 1004 1005 1007 700
755 1000 1005 1001 1007 700
756 1008 1009 1011 1015 700
757 1008 1011 1010 1015 700
758 1008 1010 1014 1015 700
759 1008 1014 1012 1015 700
760 1008 1012 1013 1015 700
761 1008 1013 1009 1015 700
762 1016 1017 1019 1023 700
763 1016 1019 1018 1023 700
764 1016 1018 1022 1023 700
765 1016 1022 1020 1023 700
766 1016 1020 1021 1023 700
767 1016 1021 1017 1023 700
768 1024 1025 1027 1031 700
769 1024 1027 1026 1031 700
770 1024 1026 1030 1031 700
771 1024 1030 1028 1031 700
772 1024 1028 1029 1031 700
773 1024 1029 1025 1031 700
774 1032 1033 1035 1039 700
775 1032 1035 1034 1039 700
776 1032 1034 1038 1039 700
777 1032 1038 1036 1039 700
778 1032 1036 1037 1039 700
779 1032 1037 1033 1039 700
780 1040 1041 1043 1047 700
781 1040 1043 1042 1047 700
782 1040 1042 1046 1047 700
783 1040 1046 1044 1047 700
784 1040 1044 1045 1047 700
785 1040 1045 1041 1047 700
786 1048 1049 1051 1055 700
787 1048 1051 1050 1055 700
788 1048 1050 1054 1055 700
789 1048 1054 1052 1055 700
790 1048 1052 1053 1055 700
791 1048 1053 1049 1055 700
792 1056 1057 1059 1063 700
793 1056 1059 1058 1063 700
794 1056 1058 1062 1063 700
795 1056 1062 1060 1063 700
796 1056 1060 1061 1063 700
797 1056 1061 1057 1063 700
798 1064 1065 1067 1071 700
799 1064 1067 1066 1071 700
800 1064 1066 1070 1071 700
801 1064 1070 1068 1071 700
802 1064 1068 1069 1071 700
803 1064 1069 1065 1071 700
804 1072 1073 1075 1079 700
805 1072 1075 1074 1079 700
806 1072 1074 1078 1079 700
807 1072 1078 1076 1079 700
808 1072 1076 1077 1079 700
809 1072 1077 1073 1079 700
810 1080 1081 1083 1087 700
811 1080 1083 1082 1087 700
812 1080 1082 1086 1087 700
813 1080 1086 1084 1087 700
814 1080 1084 1085 1087 700
815 1080 1085 1081 1087 700
816 1088 1089 1091 1095 700
817 1088 1091 1090 1095 700
818 1088 1090 1094 1095 700
819 1088 1094 1092 1095 700
820 1088 1092 1093 1095 700
821 1088 1093 1089 1095 700
822 1096 1097 1099 1103 700
823 1096 1099 1098 1103 700
824 1096 1098 1102 1103 700
825 1096 1102 1100 1103 700
826 1096 1100 1101 1103 700
827 1096 1101 1097 1103 700
828 1104 1105 1107 1111 700
829 1104 1107 1106 1111 700
830 1104 1106 1110 1111 700
831 1104 1110 1108 1111 700
832 1104 1108 1109 1111 700
833 1104 1109 1105 1111 700
834 1112 1113 1115 1119 700
835 1112 1115 1114 1119 700
836 1112 1114 1118 1119 700
837 1112 1118 1116 1119 700
838 1112 1116 1117 1119 700
839 1112 1117 1113 1119 700
840 1120 1121 1123 1127 700
841 1120 1123 1122 1127 700
842 1120 1122 1126 1127 700
843 1120 1126 1124 1127 700
844 1120 1124 1125 1127 700
845 1120 1125 1121 1127 700
846 1128 1129 1131 1135 700
847 1128 1131 1130 1135 700
848 1128 1130 1134 1135 700
849 1128 1134 1132 1135 700
850 1128 1132 1133 1135 700
851 1128 1133 1129 1135 700
852 1136 1137 1139 1143 700
853 1136 1139 1138 1143 700
854 1136 1138 1142 1143 700
855 1136 1142 1140 1143 700
856 1136 1140 1141 1143 700
857 1136 1141 1137 1143 700
858 1144 1145 1147 1151 700
859 1144 1147 1146 1151 700
860 1144 1146 1150 1151 700
861 1144 1150 1148 1151 700
862 1144 1148 1149 1151 700
863 1144 1149 1145 1151 700
864 1152 1153 1155 1159 700
865 1152 1155 1154 1159 700
866 1152 1154 1158 1159 700
867 1152 1158 1156 1159 700
868 1152 1156 1157 1159 700
869 1152 1157 1153 1159 700
870 1160 1161 1163 1167 700
871 1160 1163 1162 1167 700
872 1160 1162 1166 1167 700
873 1160 1166 1164 1167 700
874 1160 1164 1165 1167 700
875 1160 1165 1161 1167 700
876 1168 1169 1171 1175 700
877 1168 1171 1170 1175 700
878 1168 1170 1174 1175 700
879 1168 1174 1172 1175 700
880 1168 1172 1173 1175 700
881 1168 1173 1169 1175 700
882 1176 1177 1179 1183 700
883 1176 1179 1178 1183 700
884 1176 1178 1182 1183 700
885 1176 1182 1180 1183 700
886 1176 1180 1181 1183 700
887 1176 1181 1177 1183 700
888 1184 1185 1187 1191 700
889 1184 1187 1186 1191 700
890 1184 1186 1190 1191 700
891 1184 1190 1188 1191 700
892 1184 1188 1189 1191 700
893 1184 1189 1185 1191 700
894 1192 1193 1195 1199 700
895 1192 1195 1194 1199 700
896 1192 1194 1198 1199 700
897 1192 1198 1196 1199 700
898 1192 1196 1197 1199 700
899 1192 1197 1193 1199 700
