25 3 0 0
0 0.000000 0.000000 0.000000
1 0.000000 -2.102924 -3.402603
2 0.000000 -2.102924 3.402603
3 0.000000 2.102924 -3.402603
4 0.000000 2.102924 3.402603
5 -2.102924 -3.402603 0.000000
6 -2.102924 3.402603 0.000000
7 2.102924 -3.402603 0.000000
8 2.102924 3.402603 0.000000
9 -3.402603 0.000000 -2.102924
10 3.402603 0.000000 -2.102924
11 -3.402603 0.000000 2.102924
12 3.402603 0.000000 2.102924
13 -3.000000 -3.000000 -3.000000
14 3.000000 -3.000000 -3.000000
15 -3.000000 3.000000 -3.000000
16 3.000000 3.000000 -3.000000
17 -3.000000 -3.000000 3.000000
18 3.000000 -3.000000 3.000000
19 -3.000000 3.000000 3.000000
20 3.000000 3.000000 3.000000
21 -5.000000 -5.000000 -5.000000
22 6.000000 -5.000000 -5.000000
23 0.000000 7.000000 -5.000000
24 0.000000 0.000000 7.000000
