25 3 0 0
0 -12.000000 0.000000 0.000000
1 -12.000000 -1.840059 -2.977278
2 -12.000000 -1.840059 2.977278
3 -12.000000 1.840059 -2.977278
4 -12.000000 1.840059 2.977278
5 -13.840059 -2.977278 0.000000
6 -13.840059 2.977278 0.000000
7 -10.159941 -2.977278 0.000000
8 -10.159941 2.977278 0.000000
9 -14.977278 0.000000 -1.840059
10 -9.022722 0.000000 -1.840059
11 -14.977278 0.000000 1.840059
12 -9.022722 0.000000 1.840059
13 -3.000000 -3.000000 -3.000000
14 3.000000 -3.000000 -3.000000
15 -3.000000 3.000000 -3.000000
16 3.000000 3.000000 -3.000000
17 -3.000000 -3.000000 3.000000
18 3.000000 -3.000000 3.000000
19 -3.000000 3.000000 3.000000
20 3.000000 3.000000 3.000000
21 14.500000 2.500000 2.500000
22 9.500000 -2.500000 2.500000
23 9.500000 2.500000 -2.500000
24 14.500000 -2.500000 -2.500000
